{
    "asset" : {
        "generator" : "Khronos glTF Blender I/O v1.8.19",
        "version" : "2.0"
    },
    "scene" : 0,
    "scenes" : [
        {
            "name" : "Scene",
            "nodes" : [
                0,
                1,
                2
            ]
        }
    ],
    "nodes" : [
        {
            "mesh" : 0,
            "name" : "Cylinder",
            "rotation" : [
                0.7071068286895752,
                0,
                0,
                0.7071067094802856
            ]
        },
        {
            "mesh" : 1,
            "name" : "Mesh",
            "rotation" : [
                0.7071068286895752,
                0,
                0,
                0.7071067094802856
            ]
        },
        {
            "mesh" : 2,
            "name" : "Mesh (2)",
            "rotation" : [
                0.7071068286895752,
                0,
                0,
                0.7071067094802856
            ]
        }
    ],
    "materials" : [
        {
            "doubleSided" : true,
            "name" : "tire",
            "normalTexture" : {
                "index" : 0
            },
            "pbrMetallicRoughness" : {
                "baseColorTexture" : {
                    "index" : 1
                },
                "metallicFactor" : 0,
                "roughnessFactor" : 0.4940355718135834
            }
        },
        {
            "doubleSided" : true,
            "name" : "black2",
            "pbrMetallicRoughness" : {
                "baseColorTexture" : {
                    "index" : 2
                },
                "metallicFactor" : 0,
                "roughnessFactor" : 0.4940355718135834
            }
        },
        {
            "doubleSided" : true,
            "name" : "frame",
            "pbrMetallicRoughness" : {
                "baseColorFactor" : [
                    0,
                    0,
                    0,
                    1
                ],
                "metallicFactor" : 0,
                "roughnessFactor" : 0.4940355718135834
            }
        },
        {
            "doubleSided" : true,
            "name" : "main",
            "pbrMetallicRoughness" : {
                "baseColorFactor" : [
                    0.800000011920929,
                    0.800000011920929,
                    0.800000011920929,
                    1
                ],
                "metallicFactor" : 0,
                "roughnessFactor" : 0.4940355718135834
            }
        },
        {
            "doubleSided" : true,
            "name" : "g",
            "pbrMetallicRoughness" : {
                "baseColorFactor" : [
                    0.800000011920929,
                    0,
                    0,
                    1
                ],
                "metallicFactor" : 0,
                "roughnessFactor" : 0.4940355718135834
            }
        },
        {
            "doubleSided" : true,
            "name" : "black",
            "pbrMetallicRoughness" : {
                "baseColorFactor" : [
                    0,
                    0,
                    0,
                    1
                ],
                "metallicFactor" : 0,
                "roughnessFactor" : 0.4940355718135834
            }
        }
    ],
    "meshes" : [
        {
            "name" : "Cylinder",
            "primitives" : [
                {
                    "attributes" : {
                        "POSITION" : 0,
                        "NORMAL" : 1,
                        "TEXCOORD_0" : 2
                    },
                    "indices" : 3,
                    "material" : 0
                },
                {
                    "attributes" : {
                        "POSITION" : 4,
                        "NORMAL" : 5,
                        "TEXCOORD_0" : 6
                    },
                    "indices" : 7,
                    "material" : 1
                }
            ]
        },
        {
            "name" : "Mesh",
            "primitives" : [
                {
                    "attributes" : {
                        "POSITION" : 8,
                        "NORMAL" : 9,
                        "TEXCOORD_0" : 10
                    },
                    "indices" : 11,
                    "material" : 2
                },
                {
                    "attributes" : {
                        "POSITION" : 12,
                        "NORMAL" : 13,
                        "TEXCOORD_0" : 14
                    },
                    "indices" : 15,
                    "material" : 3
                }
            ]
        },
        {
            "name" : "Mesh (2)",
            "primitives" : [
                {
                    "attributes" : {
                        "POSITION" : 16,
                        "NORMAL" : 17,
                        "TEXCOORD_0" : 18
                    },
                    "indices" : 19,
                    "material" : 4
                },
                {
                    "attributes" : {
                        "POSITION" : 20,
                        "NORMAL" : 21,
                        "TEXCOORD_0" : 22
                    },
                    "indices" : 23,
                    "material" : 5
                },
                {
                    "attributes" : {
                        "POSITION" : 24,
                        "NORMAL" : 25,
                        "TEXCOORD_0" : 26
                    },
                    "indices" : 27,
                    "material" : 3
                }
            ]
        }
    ],
    "textures" : [
        {
            "sampler" : 0,
            "source" : 0
        },
        {
            "sampler" : 0,
            "source" : 1
        },
        {
            "sampler" : 0,
            "source" : 2
        }
    ],
    "images" : [
        {
            "mimeType" : "image/jpeg",
            "name" : "tire tread2",
            "uri" : "tire%20tread2.jpg"
        },
        {
            "mimeType" : "image/jpeg",
            "name" : "tire tread",
            "uri" : "tire%20tread.jpg"
        },
        {
            "mimeType" : "image/jpeg",
            "name" : "tire-texture-1b",
            "uri" : "tire-texture-1b.jpg"
        }
    ],
    "accessors" : [
        {
            "bufferView" : 0,
            "componentType" : 5126,
            "count" : 3625,
            "max" : [
                0.49672800302505493,
                0.231564000248909,
                0.49672800302505493
            ],
            "min" : [
                -0.49672800302505493,
                -0.23132799565792084,
                -0.49672800302505493
            ],
            "type" : "VEC3"
        },
        {
            "bufferView" : 1,
            "componentType" : 5126,
            "count" : 3625,
            "type" : "VEC3"
        },
        {
            "bufferView" : 2,
            "componentType" : 5126,
            "count" : 3625,
            "type" : "VEC2"
        },
        {
            "bufferView" : 3,
            "componentType" : 5123,
            "count" : 20736,
            "type" : "SCALAR"
        },
        {
            "bufferView" : 4,
            "componentType" : 5126,
            "count" : 4608,
            "max" : [
                0.49672800302505493,
                0.24412499368190765,
                0.49672800302505493
            ],
            "min" : [
                -0.49672800302505493,
                -0.24412499368190765,
                -0.49672800302505493
            ],
            "type" : "VEC3"
        },
        {
            "bufferView" : 5,
            "componentType" : 5126,
            "count" : 4608,
            "type" : "VEC3"
        },
        {
            "bufferView" : 6,
            "componentType" : 5126,
            "count" : 4608,
            "type" : "VEC2"
        },
        {
            "bufferView" : 7,
            "componentType" : 5123,
            "count" : 24192,
            "type" : "SCALAR"
        },
        {
            "bufferView" : 8,
            "componentType" : 5126,
            "count" : 252,
            "max" : [
                0.4084720015525818,
                -0.23155799508094788,
                0.4084720015525818
            ],
            "min" : [
                -0.4084720015525818,
                -0.23609599471092224,
                -0.4084720015525818
            ],
            "type" : "VEC3"
        },
        {
            "bufferView" : 9,
            "componentType" : 5126,
            "count" : 252,
            "type" : "VEC3"
        },
        {
            "bufferView" : 10,
            "componentType" : 5126,
            "count" : 252,
            "type" : "VEC2"
        },
        {
            "bufferView" : 11,
            "componentType" : 5123,
            "count" : 720,
            "type" : "SCALAR"
        },
        {
            "bufferView" : 12,
            "componentType" : 5126,
            "count" : 3450,
            "max" : [
                0.4282419979572296,
                0.24041800200939178,
                0.4282419979572296
            ],
            "min" : [
                -0.4282419979572296,
                -0.24041800200939178,
                -0.4282419979572296
            ],
            "type" : "VEC3"
        },
        {
            "bufferView" : 13,
            "componentType" : 5126,
            "count" : 3450,
            "type" : "VEC3"
        },
        {
            "bufferView" : 14,
            "componentType" : 5126,
            "count" : 3450,
            "type" : "VEC2"
        },
        {
            "bufferView" : 15,
            "componentType" : 5123,
            "count" : 12216,
            "type" : "SCALAR"
        },
        {
            "bufferView" : 16,
            "componentType" : 5126,
            "count" : 382,
            "max" : [
                0.04453539848327637,
                -0.0681874006986618,
                0.029180200770497322
            ],
            "min" : [
                -0.03833379969000816,
                -0.12117700278759003,
                -0.0343145988881588
            ],
            "type" : "VEC3"
        },
        {
            "bufferView" : 17,
            "componentType" : 5126,
            "count" : 382,
            "type" : "VEC3"
        },
        {
            "bufferView" : 18,
            "componentType" : 5126,
            "count" : 382,
            "type" : "VEC2"
        },
        {
            "bufferView" : 19,
            "componentType" : 5123,
            "count" : 1092,
            "type" : "SCALAR"
        },
        {
            "bufferView" : 20,
            "componentType" : 5126,
            "count" : 180,
            "max" : [
                0.41745200753211975,
                -0.04670310020446777,
                0.41745200753211975
            ],
            "min" : [
                -0.41745200753211975,
                -0.22892999649047852,
                -0.41745200753211975
            ],
            "type" : "VEC3"
        },
        {
            "bufferView" : 21,
            "componentType" : 5126,
            "count" : 180,
            "type" : "VEC3"
        },
        {
            "bufferView" : 22,
            "componentType" : 5126,
            "count" : 180,
            "type" : "VEC2"
        },
        {
            "bufferView" : 23,
            "componentType" : 5123,
            "count" : 426,
            "type" : "SCALAR"
        },
        {
            "bufferView" : 24,
            "componentType" : 5126,
            "count" : 793,
            "max" : [
                0.41745200753211975,
                0.07063189893960953,
                0.41745200753211975
            ],
            "min" : [
                -0.41745200753211975,
                -0.22892999649047852,
                -0.41745200753211975
            ],
            "type" : "VEC3"
        },
        {
            "bufferView" : 25,
            "componentType" : 5126,
            "count" : 793,
            "type" : "VEC3"
        },
        {
            "bufferView" : 26,
            "componentType" : 5126,
            "count" : 793,
            "type" : "VEC2"
        },
        {
            "bufferView" : 27,
            "componentType" : 5123,
            "count" : 2442,
            "type" : "SCALAR"
        }
    ],
    "bufferViews" : [
        {
            "buffer" : 0,
            "byteLength" : 43500,
            "byteOffset" : 0
        },
        {
            "buffer" : 0,
            "byteLength" : 43500,
            "byteOffset" : 43500
        },
        {
            "buffer" : 0,
            "byteLength" : 29000,
            "byteOffset" : 87000
        },
        {
            "buffer" : 0,
            "byteLength" : 41472,
            "byteOffset" : 116000
        },
        {
            "buffer" : 0,
            "byteLength" : 55296,
            "byteOffset" : 157472
        },
        {
            "buffer" : 0,
            "byteLength" : 55296,
            "byteOffset" : 212768
        },
        {
            "buffer" : 0,
            "byteLength" : 36864,
            "byteOffset" : 268064
        },
        {
            "buffer" : 0,
            "byteLength" : 48384,
            "byteOffset" : 304928
        },
        {
            "buffer" : 0,
            "byteLength" : 3024,
            "byteOffset" : 353312
        },
        {
            "buffer" : 0,
            "byteLength" : 3024,
            "byteOffset" : 356336
        },
        {
            "buffer" : 0,
            "byteLength" : 2016,
            "byteOffset" : 359360
        },
        {
            "buffer" : 0,
            "byteLength" : 1440,
            "byteOffset" : 361376
        },
        {
            "buffer" : 0,
            "byteLength" : 41400,
            "byteOffset" : 362816
        },
        {
            "buffer" : 0,
            "byteLength" : 41400,
            "byteOffset" : 404216
        },
        {
            "buffer" : 0,
            "byteLength" : 27600,
            "byteOffset" : 445616
        },
        {
            "buffer" : 0,
            "byteLength" : 24432,
            "byteOffset" : 473216
        },
        {
            "buffer" : 0,
            "byteLength" : 4584,
            "byteOffset" : 497648
        },
        {
            "buffer" : 0,
            "byteLength" : 4584,
            "byteOffset" : 502232
        },
        {
            "buffer" : 0,
            "byteLength" : 3056,
            "byteOffset" : 506816
        },
        {
            "buffer" : 0,
            "byteLength" : 2184,
            "byteOffset" : 509872
        },
        {
            "buffer" : 0,
            "byteLength" : 2160,
            "byteOffset" : 512056
        },
        {
            "buffer" : 0,
            "byteLength" : 2160,
            "byteOffset" : 514216
        },
        {
            "buffer" : 0,
            "byteLength" : 1440,
            "byteOffset" : 516376
        },
        {
            "buffer" : 0,
            "byteLength" : 852,
            "byteOffset" : 517816
        },
        {
            "buffer" : 0,
            "byteLength" : 9516,
            "byteOffset" : 518668
        },
        {
            "buffer" : 0,
            "byteLength" : 9516,
            "byteOffset" : 528184
        },
        {
            "buffer" : 0,
            "byteLength" : 6344,
            "byteOffset" : 537700
        },
        {
            "buffer" : 0,
            "byteLength" : 4884,
            "byteOffset" : 544044
        }
    ],
    "samplers" : [
        {
            "magFilter" : 9729,
            "minFilter" : 9987
        }
    ],
    "buffers" : [
        {
            "byteLength" : 548928,
            "uri" : "carwheek.bin"
        }
    ]
}
