{
    "asset" : {
        "generator" : "Khronos glTF Blender I/O v1.8.19",
        "version" : "2.0"
    },
    "scene" : 0,
    "scenes" : [
        {
            "name" : "Scene",
            "nodes" : [
                0,
                1
            ]
        }
    ],
    "nodes" : [
        {
            "mesh" : 0,
            "name" : "indoor_plant_02",
            "rotation" : [
                0.7071068286895752,
                0,
                0,
                0.7071067094802856
            ]
        },
        {
            "mesh" : 1,
            "name" : "Plane_Plane.001",
            "rotation" : [
                0.7071068286895752,
                0,
                0,
                0.7071067094802856
            ]
        }
    ],
    "materials" : [
        {
            "doubleSided" : true,
            "name" : "IDP_root",
            "pbrMetallicRoughness" : {
                "metallicFactor" : 0,
                "roughnessFactor" : 0.690034806728363
            }
        },
        {
            "doubleSided" : true,
            "name" : "IDP_root_indoor_plant_2_NOR.jpg",
            "pbrMetallicRoughness" : {
                "metallicFactor" : 0,
                "roughnessFactor" : 0.690034806728363
            }
        },
        {
            "doubleSided" : true,
            "name" : "IDP_ground",
            "pbrMetallicRoughness" : {
                "metallicFactor" : 0,
                "roughnessFactor" : 0.690034806728363
            }
        },
        {
            "doubleSided" : true,
            "name" : "IDP_leaves",
            "pbrMetallicRoughness" : {
                "metallicFactor" : 0,
                "roughnessFactor" : 0.690034806728363
            }
        },
        {
            "doubleSided" : true,
            "name" : "IDP_leaves_indoor_plant_2_NOR.jpg",
            "pbrMetallicRoughness" : {
                "metallicFactor" : 0,
                "roughnessFactor" : 0.690034806728363
            }
        },
        {
            "doubleSided" : true,
            "name" : "IDP_Pot",
            "pbrMetallicRoughness" : {
                "metallicFactor" : 0,
                "roughnessFactor" : 0.690034806728363
            }
        },
        {
            "doubleSided" : true,
            "name" : "Material.006",
            "pbrMetallicRoughness" : {
                "metallicFactor" : 0,
                "roughnessFactor" : 0.690034806728363
            }
        }
    ],
    "meshes" : [
        {
            "name" : "indoor_plant_02",
            "primitives" : [
                {
                    "attributes" : {
                        "POSITION" : 0,
                        "NORMAL" : 1,
                        "TEXCOORD_0" : 2
                    },
                    "indices" : 3,
                    "material" : 0
                },
                {
                    "attributes" : {
                        "POSITION" : 4,
                        "NORMAL" : 5,
                        "TEXCOORD_0" : 6
                    },
                    "indices" : 7,
                    "material" : 1
                },
                {
                    "attributes" : {
                        "POSITION" : 8,
                        "NORMAL" : 9,
                        "TEXCOORD_0" : 10
                    },
                    "indices" : 11,
                    "material" : 2
                },
                {
                    "attributes" : {
                        "POSITION" : 12,
                        "NORMAL" : 13,
                        "TEXCOORD_0" : 14
                    },
                    "indices" : 15,
                    "material" : 3
                },
                {
                    "attributes" : {
                        "POSITION" : 16,
                        "NORMAL" : 17,
                        "TEXCOORD_0" : 18
                    },
                    "indices" : 19,
                    "material" : 4
                },
                {
                    "attributes" : {
                        "POSITION" : 20,
                        "NORMAL" : 21,
                        "TEXCOORD_0" : 22
                    },
                    "indices" : 23,
                    "material" : 5
                }
            ]
        },
        {
            "name" : "Plane_Plane.001",
            "primitives" : [
                {
                    "attributes" : {
                        "POSITION" : 24,
                        "NORMAL" : 25,
                        "TEXCOORD_0" : 26
                    },
                    "indices" : 27,
                    "material" : 6
                }
            ]
        }
    ],
    "accessors" : [
        {
            "bufferView" : 0,
            "componentType" : 5126,
            "count" : 2030,
            "max" : [
                0.32219499349594116,
                0.24025799334049225,
                -1.5563939809799194
            ],
            "min" : [
                -0.34422099590301514,
                -0.25751999020576477,
                -2.8751180171966553
            ],
            "type" : "VEC3"
        },
        {
            "bufferView" : 1,
            "componentType" : 5126,
            "count" : 2030,
            "type" : "VEC3"
        },
        {
            "bufferView" : 2,
            "componentType" : 5126,
            "count" : 2030,
            "type" : "VEC2"
        },
        {
            "bufferView" : 3,
            "componentType" : 5123,
            "count" : 11616,
            "type" : "SCALAR"
        },
        {
            "bufferView" : 4,
            "componentType" : 5126,
            "count" : 5618,
            "max" : [
                0.7920269966125488,
                0.7920600175857544,
                -0.03753099963068962
            ],
            "min" : [
                -0.7920269966125488,
                -0.7920600175857544,
                -1.7120590209960938
            ],
            "type" : "VEC3"
        },
        {
            "bufferView" : 5,
            "componentType" : 5126,
            "count" : 5618,
            "type" : "VEC3"
        },
        {
            "bufferView" : 6,
            "componentType" : 5126,
            "count" : 5618,
            "type" : "VEC2"
        },
        {
            "bufferView" : 7,
            "componentType" : 5123,
            "count" : 28416,
            "type" : "SCALAR"
        },
        {
            "bufferView" : 8,
            "componentType" : 5126,
            "count" : 5697,
            "max" : [
                0.7278929948806763,
                0.7279239892959595,
                -1.6142710447311401
            ],
            "min" : [
                -0.7278929948806763,
                -0.7279239892959595,
                -1.6915099620819092
            ],
            "type" : "VEC3"
        },
        {
            "bufferView" : 9,
            "componentType" : 5126,
            "count" : 5697,
            "type" : "VEC3"
        },
        {
            "bufferView" : 10,
            "componentType" : 5126,
            "count" : 5697,
            "type" : "VEC2"
        },
        {
            "bufferView" : 11,
            "componentType" : 5123,
            "count" : 33792,
            "type" : "SCALAR"
        },
        {
            "bufferView" : 12,
            "componentType" : 5126,
            "count" : 4712,
            "max" : [
                1.0630500316619873,
                1.4286530017852783,
                -2.5447020530700684
            ],
            "min" : [
                -3.28548002243042,
                -1.9332890510559082,
                -6.21406888961792
            ],
            "type" : "VEC3"
        },
        {
            "bufferView" : 13,
            "componentType" : 5126,
            "count" : 4712,
            "type" : "VEC3"
        },
        {
            "bufferView" : 14,
            "componentType" : 5126,
            "count" : 4712,
            "type" : "VEC2"
        },
        {
            "bufferView" : 15,
            "componentType" : 5123,
            "count" : 24672,
            "type" : "SCALAR"
        },
        {
            "bufferView" : 16,
            "componentType" : 5126,
            "count" : 4688,
            "max" : [
                3.5356030464172363,
                2.922302007675171,
                -2.38201904296875
            ],
            "min" : [
                -0.9646980166435242,
                -1.8450870513916016,
                -6.114295959472656
            ],
            "type" : "VEC3"
        },
        {
            "bufferView" : 17,
            "componentType" : 5126,
            "count" : 4688,
            "type" : "VEC3"
        },
        {
            "bufferView" : 18,
            "componentType" : 5126,
            "count" : 4688,
            "type" : "VEC2"
        },
        {
            "bufferView" : 19,
            "componentType" : 5123,
            "count" : 24384,
            "type" : "SCALAR"
        },
        {
            "bufferView" : 20,
            "componentType" : 5126,
            "count" : 2602,
            "max" : [
                0.8527399897575378,
                0.8527399897575378,
                0.009351000189781189
            ],
            "min" : [
                -0.8527399897575378,
                -0.8527399897575378,
                -1.6802599430084229
            ],
            "type" : "VEC3"
        },
        {
            "bufferView" : 21,
            "componentType" : 5126,
            "count" : 2602,
            "type" : "VEC3"
        },
        {
            "bufferView" : 22,
            "componentType" : 5126,
            "count" : 2602,
            "type" : "VEC2"
        },
        {
            "bufferView" : 23,
            "componentType" : 5123,
            "count" : 14592,
            "type" : "SCALAR"
        },
        {
            "bufferView" : 24,
            "componentType" : 5126,
            "count" : 32,
            "max" : [
                -2.3459320068359375,
                0.5149019956588745,
                0.3509509861469269
            ],
            "min" : [
                -4.72589111328125,
                0.5149009823799133,
                -9.143186569213867
            ],
            "type" : "VEC3"
        },
        {
            "bufferView" : 25,
            "componentType" : 5126,
            "count" : 32,
            "type" : "VEC3"
        },
        {
            "bufferView" : 26,
            "componentType" : 5126,
            "count" : 32,
            "type" : "VEC2"
        },
        {
            "bufferView" : 27,
            "componentType" : 5123,
            "count" : 48,
            "type" : "SCALAR"
        }
    ],
    "bufferViews" : [
        {
            "buffer" : 0,
            "byteLength" : 24360,
            "byteOffset" : 0
        },
        {
            "buffer" : 0,
            "byteLength" : 24360,
            "byteOffset" : 24360
        },
        {
            "buffer" : 0,
            "byteLength" : 16240,
            "byteOffset" : 48720
        },
        {
            "buffer" : 0,
            "byteLength" : 23232,
            "byteOffset" : 64960
        },
        {
            "buffer" : 0,
            "byteLength" : 67416,
            "byteOffset" : 88192
        },
        {
            "buffer" : 0,
            "byteLength" : 67416,
            "byteOffset" : 155608
        },
        {
            "buffer" : 0,
            "byteLength" : 44944,
            "byteOffset" : 223024
        },
        {
            "buffer" : 0,
            "byteLength" : 56832,
            "byteOffset" : 267968
        },
        {
            "buffer" : 0,
            "byteLength" : 68364,
            "byteOffset" : 324800
        },
        {
            "buffer" : 0,
            "byteLength" : 68364,
            "byteOffset" : 393164
        },
        {
            "buffer" : 0,
            "byteLength" : 45576,
            "byteOffset" : 461528
        },
        {
            "buffer" : 0,
            "byteLength" : 67584,
            "byteOffset" : 507104
        },
        {
            "buffer" : 0,
            "byteLength" : 56544,
            "byteOffset" : 574688
        },
        {
            "buffer" : 0,
            "byteLength" : 56544,
            "byteOffset" : 631232
        },
        {
            "buffer" : 0,
            "byteLength" : 37696,
            "byteOffset" : 687776
        },
        {
            "buffer" : 0,
            "byteLength" : 49344,
            "byteOffset" : 725472
        },
        {
            "buffer" : 0,
            "byteLength" : 56256,
            "byteOffset" : 774816
        },
        {
            "buffer" : 0,
            "byteLength" : 56256,
            "byteOffset" : 831072
        },
        {
            "buffer" : 0,
            "byteLength" : 37504,
            "byteOffset" : 887328
        },
        {
            "buffer" : 0,
            "byteLength" : 48768,
            "byteOffset" : 924832
        },
        {
            "buffer" : 0,
            "byteLength" : 31224,
            "byteOffset" : 973600
        },
        {
            "buffer" : 0,
            "byteLength" : 31224,
            "byteOffset" : 1004824
        },
        {
            "buffer" : 0,
            "byteLength" : 20816,
            "byteOffset" : 1036048
        },
        {
            "buffer" : 0,
            "byteLength" : 29184,
            "byteOffset" : 1056864
        },
        {
            "buffer" : 0,
            "byteLength" : 384,
            "byteOffset" : 1086048
        },
        {
            "buffer" : 0,
            "byteLength" : 384,
            "byteOffset" : 1086432
        },
        {
            "buffer" : 0,
            "byteLength" : 256,
            "byteOffset" : 1086816
        },
        {
            "buffer" : 0,
            "byteLength" : 96,
            "byteOffset" : 1087072
        }
    ],
    "buffers" : [
        {
            "byteLength" : 1087168,
            "uri" : "data:application/octet-stream;base64,"
        }
    ]
}
