{
	"asset":{
		"generator":"Khronos glTF Blender I/O v4.0.44",
		"version":"2.0"
	},
	"extensionsUsed":[
		"KHR_materials_specular",
		"KHR_materials_ior"
	],
	"scene":0,
	"scenes":[
		{
			"name":"Scene",
			"nodes":[
				0,
				1,
				2,
				3
			]
		}
	],
	"nodes":[
		{
			"mesh":0,
			"name":"Garde",
			"scale":[
				0.009999999776482582,
				0.009999999776482582,
				0.009999999776482582
			],
			"translation":[
				0,
				0,
				0.1176263764500618
			]
		},
		{
			"mesh":1,
			"name":"Pommeau",
			"scale":[
				0.009999999776482582,
				0.009999999776482582,
				0.009999999776482582
			],
			"translation":[
				0,
				0,
				0.2796248197555542
			]
		},
		{
			"mesh":2,
			"name":"Manche",
			"scale":[
				0.009999999776482582,
				0.009999999776482582,
				0.009999999776482582
			]
		},
		{
			"mesh":3,
			"name":"Lame",
			"scale":[
				0.009999999776482582,
				0.009999999776482582,
				0.009999999776482582
			]
		}
	],
	"materials":[
		{
			"doubleSided":true,
			"extensions":{
				"KHR_materials_specular":{
					"specularColorFactor":[
						2.0,
						2.0,
						2.0
					]
				},
				"KHR_materials_ior":{
					"ior":1.4500000476837158
				}
			},
			"name":"Sting",
			"pbrMetallicRoughness":{
				"baseColorFactor":[
					0.800000011920929,
					0.800000011920929,
					0.800000011920929,
					1
				],
				"roughnessFactor":0.5527864098548889
			}
		}
	],
	"meshes":[
		{
			"name":"Mesh",
			"primitives":[
				{
					"attributes":{
						"POSITION":0,
						"NORMAL":1,
						"TEXCOORD_0":2
					},
					"indices":3,
					"material":0
				}
			]
		},
		{
			"name":"Mesh.001",
			"primitives":[
				{
					"attributes":{
						"POSITION":4,
						"NORMAL":5,
						"TEXCOORD_0":6
					},
					"indices":7,
					"material":0
				}
			]
		},
		{
			"name":"Mesh.002",
			"primitives":[
				{
					"attributes":{
						"POSITION":8,
						"NORMAL":9,
						"TEXCOORD_0":10
					},
					"indices":11,
					"material":0
				}
			]
		},
		{
			"name":"Mesh.003",
			"primitives":[
				{
					"attributes":{
						"POSITION":12,
						"NORMAL":13,
						"TEXCOORD_0":14
					},
					"indices":15,
					"material":0
				}
			]
		}
	],
	"accessors":[
		{
			"bufferView":0,
			"componentType":5126,
			"count":789,
			"max":[
				6.353314399719238,
				0.855346143245697,
				1.0502774715423584
			],
			"min":[
				-6.353314399719238,
				-0.855346143245697,
				-1.2034515142440796
			],
			"type":"VEC3"
		},
		{
			"bufferView":1,
			"componentType":5126,
			"count":789,
			"type":"VEC3"
		},
		{
			"bufferView":2,
			"componentType":5126,
			"count":789,
			"type":"VEC2"
		},
		{
			"bufferView":3,
			"componentType":5123,
			"count":3840,
			"type":"SCALAR"
		},
		{
			"bufferView":4,
			"componentType":5126,
			"count":314,
			"max":[
				2.0772628784179688,
				0.7604101300239563,
				2.3057327270507812
			],
			"min":[
				-2.0772628784179688,
				-0.7604101300239563,
				-2.284090042114258
			],
			"type":"VEC3"
		},
		{
			"bufferView":5,
			"componentType":5126,
			"count":314,
			"type":"VEC3"
		},
		{
			"bufferView":6,
			"componentType":5126,
			"count":314,
			"type":"VEC2"
		},
		{
			"bufferView":7,
			"componentType":5123,
			"count":1872,
			"type":"SCALAR"
		},
		{
			"bufferView":8,
			"componentType":5126,
			"count":189,
			"max":[
				1.6999998092651367,
				0.7676457762718201,
				28.805076599121094
			],
			"min":[
				-1.6999998092651367,
				-0.7676457166671753,
				11.886924743652344
			],
			"type":"VEC3"
		},
		{
			"bufferView":9,
			"componentType":5126,
			"count":189,
			"type":"VEC3"
		},
		{
			"bufferView":10,
			"componentType":5126,
			"count":189,
			"type":"VEC2"
		},
		{
			"bufferView":11,
			"componentType":5123,
			"count":960,
			"type":"SCALAR"
		},
		{
			"bufferView":12,
			"componentType":5126,
			"count":193,
			"max":[
				3.676788806915283,
				0.5919314026832581,
				12.241557121276855
			],
			"min":[
				-3.676788806915283,
				-0.5919314026832581,
				-30.34036636352539
			],
			"type":"VEC3"
		},
		{
			"bufferView":13,
			"componentType":5126,
			"count":193,
			"type":"VEC3"
		},
		{
			"bufferView":14,
			"componentType":5126,
			"count":193,
			"type":"VEC2"
		},
		{
			"bufferView":15,
			"componentType":5123,
			"count":1116,
			"type":"SCALAR"
		}
	],
	"bufferViews":[
		{
			"buffer":0,
			"byteLength":9468,
			"byteOffset":0,
			"target":34962
		},
		{
			"buffer":0,
			"byteLength":9468,
			"byteOffset":9468,
			"target":34962
		},
		{
			"buffer":0,
			"byteLength":6312,
			"byteOffset":18936,
			"target":34962
		},
		{
			"buffer":0,
			"byteLength":7680,
			"byteOffset":25248,
			"target":34963
		},
		{
			"buffer":0,
			"byteLength":3768,
			"byteOffset":32928,
			"target":34962
		},
		{
			"buffer":0,
			"byteLength":3768,
			"byteOffset":36696,
			"target":34962
		},
		{
			"buffer":0,
			"byteLength":2512,
			"byteOffset":40464,
			"target":34962
		},
		{
			"buffer":0,
			"byteLength":3744,
			"byteOffset":42976,
			"target":34963
		},
		{
			"buffer":0,
			"byteLength":2268,
			"byteOffset":46720,
			"target":34962
		},
		{
			"buffer":0,
			"byteLength":2268,
			"byteOffset":48988,
			"target":34962
		},
		{
			"buffer":0,
			"byteLength":1512,
			"byteOffset":51256,
			"target":34962
		},
		{
			"buffer":0,
			"byteLength":1920,
			"byteOffset":52768,
			"target":34963
		},
		{
			"buffer":0,
			"byteLength":2316,
			"byteOffset":54688,
			"target":34962
		},
		{
			"buffer":0,
			"byteLength":2316,
			"byteOffset":57004,
			"target":34962
		},
		{
			"buffer":0,
			"byteLength":1544,
			"byteOffset":59320,
			"target":34962
		},
		{
			"buffer":0,
			"byteLength":2232,
			"byteOffset":60864,
			"target":34963
		}
	],
	"buffers":[
		{
			"byteLength":63096,
			"uri":"sword..bin"
		}
	]
}
